<?xml version="1.0" standalone="no"?>
<!DOCTYPE svg PUBLIC "-//W3C//DTD SVG 20010904//EN"
 "http://www.w3.org/TR/2001/REC-SVG-20010904/DTD/svg10.dtd">
<svg version="1.0" xmlns="http://www.w3.org/2000/svg"
 width="2000.000000pt" height="1333.000000pt" viewBox="0 0 2000.000000 1333.000000"
 preserveAspectRatio="xMidYMid meet">

<g transform="translate(0.000000,1333.000000) scale(0.100000,-0.100000)"
fill="#000000" stroke="none">
<path d="M0 6665 l0 -6665 10000 0 10000 0 0 6665 0 6665 -10000 0 -10000 0 0
-6665z m3060 3629 c22 -7 110 -123 110 -145 0 -10 5 -21 10 -24 23 -14 10
-127 -23 -205 -6 -14 -11 -28 -11 -31 -1 -3 -17 -26 -36 -51 -32 -42 -104 -88
-138 -88 -7 0 -12 -4 -12 -8 0 -4 -25 -5 -54 -2 -39 4 -62 13 -80 30 -14 14
-34 33 -45 44 -11 10 -23 38 -27 62 -3 24 -12 49 -20 55 -19 16 -17 45 5 77
11 15 22 45 26 66 3 21 13 49 22 62 8 13 14 24 14 26 -2 12 13 48 20 48 5 0 9
7 9 14 0 18 59 64 97 76 26 8 99 5 133 -6z m-780 -323 c19 -1 44 -11 55 -21
11 -9 30 -23 43 -29 12 -6 22 -21 22 -31 0 -11 5 -20 10 -20 28 0 -2 -132 -35
-150 -12 -7 -29 -24 -36 -39 -19 -35 -56 -71 -77 -72 -9 0 -34 -2 -54 -4 -27
-3 -46 3 -73 21 -20 13 -39 24 -43 24 -17 0 -32 68 -24 106 5 22 9 42 10 47 1
4 2 20 2 35 0 20 15 44 53 84 50 54 81 71 102 58 6 -3 26 -7 45 -9z m10464
-736 c73 -15 175 -52 197 -71 8 -8 20 -14 26 -14 5 0 37 -13 71 -30 34 -16 66
-30 71 -30 5 0 11 -7 15 -15 3 -8 15 -15 26 -15 11 0 20 -5 20 -11 0 -12 -28
-5 -80 21 -19 9 -48 20 -64 24 -17 4 -35 15 -42 24 -12 16 -13 16 -19 0 -8
-20 -37 -23 -67 -7 -16 9 -18 13 -7 20 11 6 10 9 -5 15 -12 5 -23 2 -30 -8
-18 -25 -93 -31 -151 -14 -27 9 -60 16 -72 16 -18 0 -23 6 -23 25 0 21 -5 25
-22 24 -40 -4 -59 1 -53 12 4 6 13 8 20 5 8 -3 15 0 18 7 4 13 -10 30 -33 40
-26 10 139 -4 204 -18z m276 -175 c0 -5 -7 -10 -16 -10 -8 0 -12 5 -9 10 3 6
10 10 16 10 5 0 9 -4 9 -10z m180 -30 c0 -5 -2 -10 -4 -10 -3 0 -8 5 -11 10
-3 6 -1 10 4 10 6 0 11 -4 11 -10z m880 -726 c0 -8 -4 -12 -10 -9 -5 3 -10 10
-10 16 0 5 5 9 10 9 6 0 10 -7 10 -16z m40 -47 c0 -7 8 -22 18 -33 25 -27 82
-131 82 -149 0 -8 3 -15 8 -15 10 0 26 -38 61 -146 35 -107 52 -259 40 -359
-4 -38 -8 -76 -8 -82 -1 -23 -20 -14 -95 42 -85 64 -109 68 -132 23 -27 -52
-136 -219 -141 -215 -2 2 34 82 81 178 152 314 171 377 154 506 -9 67 -43 174
-73 233 -9 17 -11 30 -5 30 5 0 10 -6 10 -13z m-3054 -685 c52 -17 80 -24 187
-46 15 -4 27 -11 27 -16 0 -13 -1 -13 -95 11 -44 11 -100 24 -125 30 -65 14
-80 19 -80 30 0 13 20 11 86 -9z m6418 -167 c11 -8 28 -15 37 -15 10 0 24 -8
31 -17 16 -23 36 -27 54 -12 22 18 92 12 127 -10 18 -12 26 -21 17 -22 -8 0 1
-6 20 -14 19 -7 34 -18 32 -25 -1 -6 7 -14 18 -17 28 -7 27 -79 -1 -135 -22
-44 -77 -108 -92 -108 -5 0 -22 -10 -39 -21 -25 -19 -44 -22 -131 -22 -83 0
-111 4 -153 22 -44 19 -79 28 -121 30 -17 1 -44 31 -38 42 7 11 -22 69 -35 69
-6 0 -10 5 -10 11 0 5 4 8 9 5 4 -3 14 14 20 37 19 65 72 167 92 178 18 9 116
37 134 38 6 0 19 -6 29 -14z m-6682 -15 c13 -6 68 -19 122 -28 55 -9 101 -22
103 -28 4 -12 -69 -113 -124 -174 -18 -19 -33 -38 -33 -42 0 -17 -99 -106
-125 -112 -22 -6 -43 2 -103 37 -42 24 -80 51 -85 59 -15 23 1 84 28 110 14
13 25 28 25 35 0 7 6 16 13 20 6 4 36 36 66 71 54 63 71 71 113 52z m4538
-140 c0 -5 -4 -10 -10 -10 -5 0 -10 5 -10 10 0 6 5 10 10 10 6 0 10 -4 10 -10z
m-3990 -345 c-7 -9 -15 -13 -17 -11 -7 7 7 26 19 26 6 0 6 -6 -2 -15z m-77
-63 c-3 -12 -11 -22 -18 -22 -21 0 -36 -25 -23 -38 17 -17 25 -15 31 8 3 11
13 20 22 20 9 0 19 -9 22 -20 7 -25 17 -25 34 0 12 18 29 21 136 27 143 7 363
-12 363 -32 0 -14 60 -28 82 -20 16 6 78 -45 78 -64 0 -6 6 -11 14 -11 8 0 17
-7 20 -17 6 -14 9 -14 27 5 15 17 30 22 62 20 37 -1 38 -2 10 -5 -18 -2 -33
-6 -33 -9 0 -3 9 -23 20 -44 18 -35 63 -74 121 -105 14 -7 19 -21 19 -57 0
-26 -4 -50 -10 -53 -5 -3 -10 -24 -10 -45 0 -30 -5 -40 -20 -45 -14 -4 -20
-15 -20 -33 0 -35 -24 -70 -52 -74 -15 -2 -26 -15 -36 -48 -8 -25 -19 -46 -23
-48 -5 -2 -9 -12 -9 -23 0 -12 -7 -19 -19 -19 -12 0 -23 -11 -29 -28 -13 -37
-68 -92 -93 -92 -10 0 -19 -6 -19 -13 0 -8 -18 -33 -40 -57 -22 -24 -40 -47
-40 -52 0 -13 -52 -57 -67 -58 -7 0 -13 -7 -13 -15 0 -8 -7 -15 -16 -15 -17 0
-81 -66 -90 -92 -3 -10 -11 -18 -18 -18 -7 0 -23 -11 -36 -25 -13 -14 -27 -25
-32 -25 -16 0 -88 -63 -88 -77 0 -7 -11 -18 -24 -24 -13 -6 -27 -20 -29 -30
-3 -10 -16 -23 -29 -28 -34 -14 -98 -75 -98 -94 0 -20 -16 -23 -23 -4 -4 8 -6
7 -6 -3 -1 -9 -17 -24 -36 -34 -19 -11 -35 -25 -35 -33 0 -7 -6 -13 -14 -13
-8 0 -17 -11 -20 -25 -3 -13 -20 -32 -37 -40 -41 -22 -169 -150 -169 -169 0
-9 -4 -16 -9 -16 -5 0 -13 -9 -16 -20 -3 -11 -12 -20 -19 -20 -18 0 -106 -70
-106 -85 0 -7 -20 -23 -44 -36 -39 -20 -42 -24 -28 -36 16 -12 16 -14 -2 -28
-11 -8 -27 -15 -36 -15 -9 0 -22 -11 -28 -25 -6 -14 -16 -25 -22 -25 -5 0 -10
-8 -10 -17 0 -11 -17 -25 -41 -37 -31 -14 -40 -23 -36 -37 3 -11 1 -16 -5 -13
-10 6 -78 -61 -78 -77 0 -5 -4 -9 -10 -9 -5 0 -10 -7 -10 -15 0 -8 -7 -15 -15
-15 -8 0 -22 -11 -31 -25 -9 -14 -26 -25 -37 -25 -16 0 -18 -3 -9 -12 15 -15
-2 -38 -28 -38 -11 0 -28 -20 -46 -55 -16 -30 -33 -55 -37 -55 -14 0 -37 -28
-37 -45 0 -9 -15 -22 -33 -30 -25 -10 -37 -24 -47 -54 -7 -22 -17 -38 -21 -35
-4 2 -13 -5 -19 -16 -6 -11 -21 -20 -34 -20 -13 0 -31 -9 -41 -20 -17 -19 -17
-20 -1 -20 10 0 16 -6 13 -12 -2 -7 -11 -12 -21 -10 -16 3 -22 -17 -17 -62 1
-16 -1 -17 -14 -6 -20 17 -26 10 -35 -39 -7 -40 -7 -41 19 -35 l26 7 -24 -23
c-18 -17 -25 -20 -31 -10 -10 16 -43 5 -37 -13 2 -6 10 -11 16 -9 6 1 11 -9
11 -21 0 -13 9 -32 20 -42 26 -24 25 -39 -4 -54 -13 -7 -30 -28 -39 -47 -9
-19 -21 -34 -26 -34 -5 0 -28 -25 -51 -55 -23 -30 -49 -55 -56 -55 -8 0 -14
-7 -14 -15 0 -8 -20 -36 -44 -62 l-44 -47 -73 13 c-76 13 -172 32 -294 57 -38
8 -104 21 -145 29 -168 34 -249 54 -267 64 -12 7 -14 10 -4 11 8 0 11 3 7 7
-4 4 -23 6 -42 4 -25 -2 -35 1 -33 11 1 7 -1 20 -5 30 -4 9 1 33 14 57 21 43
40 53 41 24 0 -10 7 -1 15 20 10 28 11 44 3 58 -7 15 -6 19 5 19 7 0 17 7 20
16 4 10 13 13 26 9 14 -5 22 -1 26 12 10 31 21 48 32 48 6 0 29 26 52 58 23
31 45 57 50 57 4 0 27 18 49 39 31 30 41 47 42 73 0 18 3 27 6 21 8 -22 27
-14 62 27 19 22 40 40 47 40 7 0 15 8 19 19 3 10 16 30 28 43 12 13 30 41 39
61 13 27 24 37 41 37 24 0 58 45 50 66 -5 15 44 54 69 54 12 0 23 11 29 28 5
16 23 39 39 51 17 12 30 30 30 39 0 10 20 33 45 50 26 18 43 37 40 43 -9 14
14 39 37 39 10 0 22 8 25 18 4 9 18 28 30 42 13 14 33 39 44 56 10 18 32 37
48 43 27 12 41 31 55 75 3 10 12 16 19 13 16 -6 42 8 42 23 0 19 69 109 84
110 20 0 40 31 41 61 0 19 5 26 17 25 12 0 19 7 21 22 2 12 9 22 15 22 7 0 23
24 37 53 14 28 35 60 47 70 13 10 21 23 18 28 -4 5 0 9 8 9 8 0 20 7 27 15 7
8 21 15 31 15 11 0 19 5 19 11 0 7 -11 9 -28 6 -15 -3 -34 -2 -42 3 -10 6 -7
10 13 14 15 3 39 9 55 13 15 3 29 7 32 8 3 0 15 7 28 15 20 13 22 23 22 92 0
63 3 78 15 78 14 0 19 18 19 70 0 8 -4 32 -8 53 -7 35 -4 40 33 75 22 20 44
50 50 65 10 26 9 28 -11 27 -39 -4 -48 -1 -48 16 0 9 6 14 12 12 14 -5 38 15
38 31 0 6 -14 14 -32 19 l-32 8 37 23 c20 12 37 29 37 38 0 14 23 43 34 43 2
0 6 -6 8 -14 2 -11 10 -9 33 9 27 22 28 25 13 42 -15 17 -15 20 7 46 13 15 28
27 33 27 27 0 57 26 54 47 -2 16 4 26 22 35 14 6 26 18 26 26 0 15 8 26 58 76
12 13 22 28 22 33 0 6 8 14 19 19 10 5 46 42 80 82 34 39 67 72 74 72 7 0 18
9 25 20 7 11 22 20 33 20 15 0 19 4 15 16 -6 17 9 44 25 44 5 0 9 -6 9 -14 0
-17 27 -29 36 -15 10 16 -4 39 -23 39 -13 0 -4 14 32 49 28 27 51 48 52 47 1
-1 0 -12 -4 -24z m-1630 -554 c-16 -28 -133 -184 -211 -282 -25 -32 -38 -29
-29 6 11 40 117 190 177 251 65 64 93 76 63 25z m1107 12 c0 -5 -5 -10 -11
-10 -5 0 -7 5 -4 10 3 6 8 10 11 10 2 0 4 -4 4 -10z m-90 -120 c0 -5 -4 -10
-10 -10 -5 0 -10 5 -10 10 0 6 5 10 10 10 6 0 10 -4 10 -10z m-696 -98 c3 -5
-5 -21 -17 -37 -12 -16 -40 -51 -62 -79 -22 -28 -60 -78 -84 -111 -25 -33 -48
-61 -53 -63 -4 -2 -8 -10 -8 -17 0 -13 -29 -29 -38 -21 -22 23 192 327 219
310 5 -3 12 2 15 10 7 17 20 21 28 8z m9403 -38 c-7 -7 51 -58 77 -67 16 -6
18 -16 14 -66 -4 -53 -8 -62 -45 -99 -40 -37 -88 -54 -153 -53 -55 1 -60 5
-112 86 -7 10 -19 25 -25 33 -22 24 -16 61 13 72 14 6 23 14 20 19 -9 15 28
40 90 60 55 19 135 28 121 15z m-8857 -29 c0 -8 -4 -15 -9 -15 -13 0 -22 16
-14 24 11 11 23 6 23 -9z m-18 -77 c-9 -9 -12 -7 -12 12 0 19 3 21 12 12 9 -9
9 -15 0 -24z m68 -23 c0 -8 -4 -15 -9 -15 -13 0 -22 16 -14 24 11 11 23 6 23
-9z m-90 -5 c0 -5 -5 -10 -11 -10 -5 0 -7 5 -4 10 3 6 8 10 11 10 2 0 4 -4 4
-10z m-10 -94 c0 -8 3 -21 6 -30 4 -10 1 -16 -9 -16 -18 0 -29 24 -21 45 8 19
24 20 24 1z m-49 -87 c-2 -8 -6 -32 -8 -54 -3 -22 -11 -54 -19 -71 -13 -29
-18 -32 -76 -37 -35 -3 -64 -4 -66 -2 -2 2 12 18 31 35 20 17 38 39 41 48 3 9
19 26 35 37 17 11 33 30 36 43 3 13 11 21 18 19 7 -2 10 -11 8 -18z m8927
-335 c15 -15 17 -15 24 2 6 14 7 11 3 -8 -5 -24 -2 -28 16 -28 26 0 89 -45 89
-63 0 -7 16 -27 35 -46 21 -19 35 -42 35 -56 0 -13 5 -27 11 -31 16 -10 3 -74
-18 -90 -20 -15 -54 -17 -103 -7 -31 6 -130 94 -130 116 0 11 -20 31 -40 40
-37 17 -100 66 -100 78 0 4 9 6 20 4 13 -2 20 2 20 11 0 8 -9 14 -20 14 -11 0
-20 6 -20 14 0 23 28 39 60 34 17 -3 33 -1 36 4 3 5 10 6 15 3 5 -4 9 1 9 9 0
21 37 21 58 0z m-9588 -22 c0 -13 -12 -22 -22 -16 -10 6 -1 24 13 24 5 0 9 -4
9 -8z m-65 -132 c-3 -5 -10 -10 -16 -10 -5 0 -9 5 -9 10 0 6 7 10 16 10 8 0
12 -4 9 -10z m-58 -72 c-3 -8 -6 -5 -6 6 -1 11 2 17 5 13 3 -3 4 -12 1 -19z
m5044 -777 l23 -19 -24 -26 c-28 -29 -73 -34 -96 -11 -17 17 -60 20 -69 5 -3
-5 -17 -10 -31 -10 -14 0 -22 -4 -19 -10 16 -26 -130 -80 -168 -62 -46 23 -70
23 -156 1 -84 -22 -91 -22 -123 -7 -18 9 -48 22 -65 28 -18 7 -33 15 -33 19 0
3 17 13 38 22 30 13 34 18 19 24 -19 8 -87 -20 -87 -35 0 -6 -9 -10 -20 -10
-11 0 -23 -7 -26 -15 -4 -8 -12 -15 -20 -15 -21 0 -17 18 6 25 11 3 20 10 20
14 0 4 18 16 40 27 22 10 40 22 40 26 0 13 92 21 100 8 6 -9 14 -9 36 3 34 17
261 16 353 -2 45 -9 59 -8 85 5 70 36 143 43 177 15z m-10206 -68 c41 -7 50
-12 50 -28 0 -14 -6 -20 -22 -19 -13 0 -51 1 -86 2 -35 1 -71 8 -81 15 -17 13
-17 14 0 31 13 13 27 16 53 12 20 -3 59 -9 86 -13z m10095 -1 c0 -4 -9 -13
-20 -20 -22 -13 -27 -3 -8 16 14 14 28 16 28 4z m-9139 -55 c-17 -43 -91 -50
-91 -9 0 37 62 70 88 47 9 -9 10 -18 3 -38z m-671 13 c0 -19 -20 -27 -33 -13
-8 7 11 33 24 33 5 0 9 -9 9 -20z m235 -34 c0 -22 -58 -61 -75 -51 -15 9 -12
36 7 57 22 25 68 21 68 -6z m-445 -46 c26 -26 26 -50 -1 -50 -34 0 -59 19 -59
45 0 31 31 34 60 5z m7850 -24 c98 -37 153 -46 165 -26 9 15 47 12 160 -10 55
-11 172 -31 260 -45 88 -15 190 -35 226 -46 91 -26 131 -24 201 11 32 17 62
30 67 30 5 0 9 -25 10 -55 0 -31 3 -60 5 -64 13 -21 -39 -61 -121 -94 -86 -34
-145 -50 -230 -62 -68 -11 -167 26 -225 82 -36 36 -51 44 -70 40 -183 -47
-196 -56 -199 -135 -3 -58 -17 -77 -49 -67 -29 9 -48 -10 -44 -44 2 -16 -3
-34 -11 -41 -17 -14 -203 -53 -221 -46 -16 6 -19 42 -4 51 15 9 12 62 -4 94
-19 35 -67 67 -191 126 -55 26 -108 51 -117 56 -10 5 -25 9 -35 9 -46 0 -146
111 -127 142 22 36 170 96 259 106 87 10 254 3 295 -12z m7434 -36 c-6 -6 -73
-13 -150 -16 -86 -3 -131 -1 -119 4 11 5 55 10 99 10 43 1 81 4 84 7 3 3 26 5
51 5 31 0 42 -3 35 -10z m-12139 -44 c25 -25 50 -99 41 -121 -8 -21 -150 -48
-219 -42 -75 7 -176 -9 -200 -31 -23 -21 -171 -23 -229 -4 -61 22 -61 67 0 78
25 5 49 20 74 46 l37 40 93 -7 c82 -6 103 -4 163 15 63 20 170 46 203 49 7 0
24 -10 37 -23z m2335 -171 c0 -8 -4 -15 -10 -15 -5 0 -10 7 -10 15 0 8 5 15
10 15 6 0 10 -7 10 -15z m70 -39 c-6 -16 -15 -24 -21 -20 -8 4 -7 9 2 15 8 5
10 9 5 9 -5 0 -3 7 4 15 18 22 22 13 10 -19z m-2510 -38 c-12 -10 -31 -18 -42
-18 -11 0 -58 -9 -103 -20 -89 -22 -277 -32 -285 -15 -6 11 51 22 160 31 41 3
86 7 100 8 14 2 48 10 75 19 65 20 87 24 104 18 11 -3 9 -9 -9 -23z m2464 -5
c5 -12 1 -14 -19 -11 -28 6 -37 -8 -23 -35 14 -27 1 -33 -22 -12 -25 22 -25
40 -2 63 19 20 58 17 66 -5z m5077 6 c13 -21 -9 -48 -49 -58 -20 -6 -80 -13
-132 -17 -85 -6 -101 -4 -147 16 -66 28 -77 50 -25 50 20 0 42 4 49 8 6 4 75
9 154 10 107 3 144 1 150 -9z m-9113 -60 c23 -25 39 -49 35 -52 -13 -13 -60
-7 -76 11 -35 38 -46 115 -14 95 7 -4 32 -29 55 -54z m12004 49 c-8 -8 -20 -8
-44 -1 l-33 11 45 1 c33 1 41 -2 32 -11z m-917 -38 c-5 -8 -11 -8 -17 -2 -6 6
-7 16 -3 22 5 8 11 8 17 2 6 -6 7 -16 3 -22z m-1690 11 c3 -5 1 -12 -4 -15
-13 -8 -42 4 -35 15 7 12 31 12 39 0z m-1641 -28 c-21 -15 -164 -19 -148 -4
11 12 133 29 153 22 11 -3 10 -7 -5 -18z m3236 17 c0 -5 -7 -10 -15 -10 -8 0
-15 5 -15 10 0 6 7 10 15 10 8 0 15 -4 15 -10z m-9977 -17 c-7 -2 -19 -2 -25
0 -7 3 -2 5 12 5 14 0 19 -2 13 -5z m9912 -28 c0 -14 -6 -25 -14 -25 -8 0 -11
6 -7 16 3 9 6 20 6 25 0 5 3 9 8 9 4 0 7 -11 7 -25z m1455 -5 c-20 -13 -77
-13 -85 0 -4 6 14 10 47 10 38 0 49 -3 38 -10z m-3193 -30 c57 -14 123 -21
248 -24 204 -6 360 -34 333 -61 -17 -17 -171 -36 -253 -31 -83 5 -259 35 -330
56 -16 5 -59 14 -95 20 -65 12 -100 31 -100 57 0 18 92 10 197 -17z m3756 23
c-7 -2 -19 -2 -25 0 -7 3 -2 5 12 5 14 0 19 -2 13 -5z m-2153 -12 c0 -5 -5
-22 -10 -36 -9 -23 -14 -26 -38 -20 -38 9 -46 27 -21 48 22 18 69 23 69 8z
m2083 -28 c-13 -2 -33 -2 -45 0 -13 2 -3 4 22 4 25 0 35 -2 23 -4z m-208 -29
c32 -21 125 -27 202 -14 61 10 75 9 102 -5 17 -8 31 -20 31 -25 0 -9 -60 -16
-100 -12 -8 1 -115 2 -237 3 -154 1 -231 -2 -252 -10 -16 -7 -42 -11 -57 -9
l-29 4 30 13 c28 11 29 13 11 23 -14 8 -33 7 -68 -1 -86 -20 -227 -9 -261 19
-4 4 47 10 115 14 68 4 139 11 158 16 51 13 330 0 355 -16z m-680 -4 l30 -7
-35 -7 c-19 -4 -62 -6 -95 -4 -54 3 -58 4 -35 15 28 13 89 15 135 3z m-790
-10 c4 -6 -7 -10 -25 -10 -18 0 -29 4 -25 10 3 6 15 10 25 10 10 0 22 -4 25
-10z m540 0 c16 -7 11 -9 -20 -9 -22 0 -49 4 -60 9 -16 7 -11 9 20 9 22 0 49
-4 60 -9z m-9502 -11 c22 -6 36 -13 33 -16 -3 -3 -43 -12 -88 -19 -46 -7 -96
-16 -113 -20 l-30 -6 21 21 c22 23 85 50 119 51 11 0 37 -5 58 -11z m3034 -4
c-11 -7 -25 -11 -33 -8 -25 10 -15 23 19 23 30 -1 31 -2 14 -15z m97 -5 c-22
-9 -29 -6 -20 9 4 6 14 7 23 4 15 -6 14 -7 -3 -13z m7918 0 c43 -4 82 -11 86
-14 15 -15 -26 -25 -88 -20 -185 14 -210 16 -210 23 0 17 47 30 89 25 24 -3
79 -9 123 -14z m-8108 -9 c8 -13 -18 -21 -45 -14 -22 6 -22 7 -3 14 27 11 42
11 48 0z m7856 -41 c0 -5 -17 -9 -37 -9 -38 1 -38 1 -8 9 43 11 45 11 45 0z
m-1233 -6 c-3 -3 -12 -4 -19 -1 -8 3 -5 6 6 6 11 1 17 -2 13 -5z m438 -13 c-8
-14 -176 -34 -201 -24 -28 11 -14 26 19 20 19 -3 40 -1 48 4 19 12 142 12 134
0z m-10425 -21 c0 -5 -7 -10 -15 -10 -8 0 -15 5 -15 10 0 6 7 10 15 10 8 0 15
-4 15 -10z m3406 -1 c3 -6 1 -16 -4 -21 -13 -13 -45 8 -36 23 7 12 31 11 40
-2z m-3513 -13 c24 -18 21 -26 -8 -26 -14 0 -25 2 -25 4 0 2 -3 11 -6 20 -8
20 14 21 39 2z m577 -16 c0 -5 -4 -10 -10 -10 -5 0 -10 5 -10 10 0 6 5 10 10
10 6 0 10 -4 10 -10z m7690 0 c16 -10 -451 -18 -610 -11 -122 6 -123 6 -50 12
107 8 646 7 660 -1z m746 3 c42 -6 45 -8 24 -14 -33 -9 -178 -11 -221 -2 -84
17 90 31 197 16z m532 -4 c24 0 25 -1 7 -9 -27 -12 -102 -12 -110 -1 -6 10 40
20 63 14 8 -1 26 -3 40 -4z m-5944 -15 c22 -21 20 -37 -8 -63 -21 -20 -96 -42
-96 -27 0 3 18 18 40 32 39 26 40 28 25 50 -14 22 -14 24 4 24 11 0 27 -7 35
-16z m4821 6 l30 -8 -35 0 c-19 -1 -53 3 -75 7 l-40 9 45 0 c25 0 59 -4 75 -8z
m271 1 c-7 -11 -144 -23 -159 -14 -7 5 26 11 73 14 47 3 86 6 88 7 2 1 1 -2
-2 -7z m-8746 -11 c0 -5 -2 -10 -4 -10 -2 0 -31 -6 -63 -14 -96 -24 -131 -29
-110 -16 10 6 39 14 65 17 26 2 51 11 55 19 9 16 57 19 57 4z m8555 0 c3 -5
-3 -10 -14 -10 -12 0 -21 5 -21 10 0 6 6 10 14 10 8 0 18 -4 21 -10z m-2995
-37 c-14 -3 -30 -9 -35 -13 -6 -5 -20 -9 -30 -10 -254 -8 -355 -8 -355 0 0 6
17 11 38 11 20 1 105 5 187 9 187 8 229 9 195 3z m4840 -3 c0 -5 -4 -10 -9
-10 -6 0 -13 5 -16 10 -3 6 1 10 9 10 9 0 16 -4 16 -10z m-5285 -30 c-3 -5
-17 -10 -31 -10 -13 0 -24 5 -24 10 0 6 14 10 31 10 17 0 28 -4 24 -10z m-955
-28 c0 -10 -45 -32 -65 -32 -22 0 -18 16 8 28 27 13 57 15 57 4z m3780 -212
c0 -10 -19 -14 -50 -12 -8 0 -39 2 -67 3 -86 4 -60 19 32 19 50 0 85 -4 85
-10z m269 1 c19 -12 -4 -24 -30 -16 -17 6 -19 9 -8 16 17 11 21 11 38 0z"/>
<path d="M12653 9203 c-7 -2 -13 -9 -13 -15 0 -14 43 -6 48 10 4 12 -12 15
-35 5z"/>
<path d="M11275 6750 c-4 -6 -3 -16 3 -22 6 -6 12 -6 17 2 4 6 3 16 -3 22 -6
6 -12 6 -17 -2z"/>
<path d="M11050 6590 c-9 -6 -10 -10 -3 -10 6 0 15 5 18 10 8 12 4 12 -15 0z"/>
<path d="M11000 6555 c0 -8 5 -15 10 -15 6 0 10 7 10 15 0 8 -4 15 -10 15 -5
0 -10 -7 -10 -15z"/>
<path d="M10704 6229 c-3 -6 -1 -16 5 -22 8 -8 11 -5 11 11 0 24 -5 28 -16 11z"/>
<path d="M10735 6200 c3 -5 10 -10 16 -10 5 0 9 5 9 10 0 6 -7 10 -16 10 -8 0
-12 -4 -9 -10z"/>
<path d="M10690 6145 c0 -8 7 -15 15 -15 8 0 15 7 15 15 0 8 -7 15 -15 15 -8
0 -15 -7 -15 -15z"/>
<path d="M10607 6093 c-14 -13 -6 -33 12 -33 16 0 31 18 31 36 0 7 -36 5 -43
-3z"/>
<path d="M10707 6065 c-4 -8 -2 -17 3 -20 6 -4 10 3 10 14 0 25 -6 27 -13 6z"/>
<path d="M10620 5996 c0 -14 29 -31 38 -21 6 6 -18 35 -29 35 -5 0 -9 -6 -9
-14z"/>
<path d="M10551 5854 c0 -11 3 -14 6 -6 3 7 2 16 -1 19 -3 4 -6 -2 -5 -13z"/>
<path d="M8832 3638 c6 -18 28 -21 28 -4 0 9 -7 16 -16 16 -9 0 -14 -5 -12
-12z"/>
</g>
</svg>
